<svg width="171" height="28" viewBox="0 0 171 28" fill="none" xmlns="http://www.w3.org/2000/svg">
<path fill-rule="evenodd" clip-rule="evenodd" d="M3.51544 14.2104L16.7503 1.12043C16.7503 1.12043 16.7503 1.12043 16.7503 1.12043C17.8804 0.00263486 19.7075 0.0283647 20.8057 1.17751L26.1075 6.72509C27.1659 7.83261 27.1568 9.57957 26.0868 10.6759L13.271 23.807H3.51544V14.2104ZM18.5 2.88947L6.0036 15.2491V21.3189H12.2227L24.3061 8.93804C24.4399 8.801 24.441 8.58263 24.3087 8.44419L19.0069 2.89661C18.8696 2.75296 18.6412 2.74975 18.5 2.88947Z" fill="#131313"/>
<path d="M1.63331 26.948C1.29124 26.948 0.991927 26.8198 0.735372 26.5632C0.222263 26.0501 0.222263 25.2377 0.735372 24.7673L15.4445 10.0582C15.9576 9.54506 16.77 9.54506 17.2404 10.0582C17.7535 10.5713 17.7535 11.3837 17.2404 11.8541L2.53126 26.5632C2.2747 26.8198 1.97539 26.948 1.63331 26.948Z" fill="#131313"/>
<path d="M16.8126 18.9947H9.58633C8.85943 18.9947 8.30356 18.4389 8.30356 17.712C8.30356 16.9851 8.85943 16.4292 9.58633 16.4292H16.8126C17.5395 16.4292 18.0954 16.9851 18.0954 17.712C18.0954 18.4389 17.5395 18.9947 16.8126 18.9947Z" fill="#131313"/>
<path d="M37.9536 21.6185L33.3151 5.75261H36.1026L39.2648 17.2113L42.4159 5.77464L45.2035 5.75261L48.3657 17.2113L51.5168 5.75261H54.3044L49.6768 21.6185H47.0545L43.8042 10.3361L40.5759 21.6185H37.9536ZM56.1022 21.6185V9.71909H58.449V12.6168L58.1625 12.2422C58.3095 11.8456 58.5041 11.4856 58.7465 11.1624C58.9962 10.8319 59.2937 10.5601 59.639 10.3471C59.9328 10.1488 60.256 9.99454 60.6085 9.88436C60.9685 9.76683 61.3357 9.69705 61.7103 9.67501C62.085 9.64563 62.4486 9.66032 62.8011 9.71909V12.1981C62.4486 12.0953 62.0409 12.0622 61.5781 12.099C61.1227 12.1357 60.7114 12.2642 60.3441 12.4846C59.9768 12.6829 59.6757 12.9363 59.4406 13.2448C59.2129 13.5534 59.044 13.9059 58.9338 14.3026C58.8236 14.6919 58.7685 15.1142 58.7685 15.5696V21.6185H56.1022ZM65.124 7.91213V5.47716H67.7794V7.91213H65.124ZM65.124 21.6185V9.71909H67.7794V21.6185H65.124ZM78.0542 21.6185C77.2682 21.7654 76.497 21.8279 75.7404 21.8058C74.9912 21.7911 74.3191 21.6553 73.7241 21.3982C73.1291 21.1337 72.6774 20.7187 72.3689 20.1531C72.0971 19.639 71.9539 19.1138 71.9392 18.5776C71.9245 18.0414 71.9171 17.4354 71.9171 16.7596V6.41369H74.5615V16.6053C74.5615 17.0828 74.5651 17.5015 74.5725 17.8614C74.5872 18.2213 74.6643 18.5151 74.8039 18.7428C75.0683 19.1836 75.4907 19.4296 76.0709 19.481C76.6512 19.5325 77.3123 19.5031 78.0542 19.3929V21.6185ZM69.7576 11.8015V9.71909H78.0542V11.8015H69.7576ZM85.4202 21.9491C84.2156 21.9491 83.1579 21.6883 82.247 21.1668C81.3362 20.6453 80.6237 19.9218 80.1095 18.9962C79.6027 18.0707 79.3493 17.0057 79.3493 15.801C79.3493 14.5009 79.599 13.3734 80.0985 12.4185C80.598 11.4563 81.2921 10.7107 82.1809 10.1818C83.0697 9.65298 84.0981 9.38855 85.266 9.38855C86.5 9.38855 87.5467 9.67869 88.4061 10.259C89.2729 10.8319 89.9156 11.6436 90.3343 12.6939C90.7529 13.7443 90.9109 14.982 90.808 16.407H88.1747V15.4374C88.1674 14.1447 87.9397 13.2008 87.4916 12.6058C87.0435 12.0108 86.3384 11.7133 85.3762 11.7133C84.289 11.7133 83.4811 12.0512 82.9522 12.727C82.4233 13.3954 82.1589 14.376 82.1589 15.6688C82.1589 16.8734 82.4233 17.8063 82.9522 18.4674C83.4811 19.1285 84.2523 19.459 85.266 19.459C85.9197 19.459 86.4816 19.3158 86.9517 19.0293C87.4292 18.7355 87.7964 18.3131 88.0535 17.7622L90.6758 18.5555C90.2204 19.6279 89.5152 20.4616 88.5604 21.0566C87.6128 21.6516 86.5661 21.9491 85.4202 21.9491ZM81.3215 16.407V14.4017H89.5079V16.407H81.3215ZM98.522 21.9491C97.3321 21.9491 96.2927 21.681 95.4039 21.1448C94.5151 20.6085 93.8247 19.8703 93.3325 18.9301C92.8477 17.9826 92.6053 16.8955 92.6053 15.6688C92.6053 14.4201 92.8551 13.3256 93.3546 12.3854C93.854 11.4452 94.5482 10.7107 95.437 10.1818C96.3258 9.65298 97.3541 9.38855 98.522 9.38855C99.7193 9.38855 100.762 9.65665 101.651 10.1929C102.54 10.7291 103.23 11.4709 103.723 12.4185C104.215 13.3587 104.461 14.4421 104.461 15.6688C104.461 16.9028 104.211 17.9936 103.711 18.9412C103.219 19.8814 102.529 20.6196 101.64 21.1558C100.751 21.6846 99.712 21.9491 98.522 21.9491ZM98.522 19.459C99.5797 19.459 100.366 19.1064 100.88 18.4013C101.394 17.6961 101.651 16.7853 101.651 15.6688C101.651 14.5156 101.39 13.5974 100.869 12.9143C100.347 12.2238 99.565 11.8786 98.522 11.8786C97.8095 11.8786 97.2219 12.0402 96.7591 12.3634C96.3037 12.6793 95.9658 13.1236 95.7455 13.6966C95.5251 14.2622 95.4149 14.9196 95.4149 15.6688C95.4149 16.822 95.6757 17.7439 96.1972 18.4343C96.7261 19.1174 97.501 19.459 98.522 19.459ZM107.109 21.6185V5.42207H109.764V21.6185H107.109ZM118.32 21.9491C117.13 21.9491 116.091 21.681 115.202 21.1448C114.313 20.6085 113.623 19.8703 113.131 18.9301C112.646 17.9826 112.403 16.8955 112.403 15.6688C112.403 14.4201 112.653 13.3256 113.153 12.3854C113.652 11.4452 114.346 10.7107 115.235 10.1818C116.124 9.65298 117.152 9.38855 118.32 9.38855C119.517 9.38855 120.56 9.65665 121.449 10.1929C122.338 10.7291 123.028 11.4709 123.52 12.4185C124.013 13.3587 124.259 14.4421 124.259 15.6688C124.259 16.9028 124.009 17.9936 123.509 18.9412C123.017 19.8814 122.327 20.6196 121.438 21.1558C120.549 21.6846 119.51 21.9491 118.32 21.9491ZM118.32 19.459C119.378 19.459 120.164 19.1064 120.678 18.4013C121.192 17.6961 121.449 16.7853 121.449 15.6688C121.449 14.5156 121.188 13.5974 120.667 12.9143C120.145 12.2238 119.363 11.8786 118.32 11.8786C117.607 11.8786 117.02 12.0402 116.557 12.3634C116.102 12.6793 115.764 13.1236 115.543 13.6966C115.323 14.2622 115.213 14.9196 115.213 15.6688C115.213 16.822 115.474 17.7439 115.995 18.4343C116.524 19.1174 117.299 19.459 118.32 19.459ZM131.688 27.2377C131.027 27.2377 130.392 27.1349 129.782 26.9292C129.18 26.7235 128.636 26.4261 128.152 26.0367C127.667 25.6548 127.27 25.192 126.962 24.6485L129.408 23.4365C129.635 23.8699 129.955 24.1894 130.366 24.3951C130.785 24.6081 131.229 24.7146 131.699 24.7146C132.25 24.7146 132.742 24.6154 133.176 24.4171C133.609 24.2261 133.943 23.9397 134.179 23.5577C134.421 23.1831 134.535 22.713 134.52 22.1474V18.7649H134.851V9.71909H137.175V22.1915C137.175 22.4926 137.161 22.7791 137.131 23.0509C137.109 23.33 137.069 23.6018 137.01 23.8662C136.834 24.6375 136.496 25.2692 135.996 25.7613C135.497 26.2608 134.876 26.6317 134.134 26.8741C133.4 27.1165 132.585 27.2377 131.688 27.2377ZM131.457 21.9491C130.363 21.9491 129.408 21.6736 128.592 21.1227C127.777 20.5718 127.145 19.8226 126.697 18.875C126.249 17.9275 126.025 16.8588 126.025 15.6688C126.025 14.4642 126.249 13.3918 126.697 12.4516C127.153 11.504 127.795 10.7585 128.625 10.2149C129.455 9.664 130.432 9.38855 131.556 9.38855C132.687 9.38855 133.635 9.664 134.399 10.2149C135.17 10.7585 135.754 11.504 136.151 12.4516C136.547 13.3991 136.746 14.4715 136.746 15.6688C136.746 16.8514 136.547 17.9202 136.151 18.875C135.754 19.8226 135.163 20.5718 134.377 21.1227C133.591 21.6736 132.618 21.9491 131.457 21.9491ZM131.865 19.5692C132.577 19.5692 133.15 19.4076 133.584 19.0844C134.024 18.7538 134.344 18.2948 134.542 17.7071C134.748 17.1195 134.851 16.4401 134.851 15.6688C134.851 14.8902 134.748 14.2108 134.542 13.6305C134.344 13.0429 134.032 12.5874 133.606 12.2642C133.18 11.9337 132.629 11.7684 131.953 11.7684C131.24 11.7684 130.653 11.9447 130.19 12.2973C129.727 12.6425 129.386 13.1126 129.165 13.7076C128.945 14.2952 128.835 14.949 128.835 15.6688C128.835 16.396 128.941 17.0571 129.154 17.652C129.375 18.2397 129.709 18.7061 130.157 19.0513C130.605 19.3966 131.174 19.5692 131.865 19.5692ZM141.83 26.9072L144.121 20.6159L144.165 22.4669L138.976 9.71909H141.741L145.422 19.1505H144.716L148.297 9.71909H150.953L144.32 26.9072H141.83ZM155.685 21.6185L161.062 13.5974L155.839 5.75261H159.09L162.704 11.3387L166.284 5.75261H169.557L164.334 13.5974L169.689 21.6185H166.439L162.704 15.8561L158.957 21.6185H155.685Z" fill="#131313"/>
</svg>
